<?xml version="1.0" standalone="no"?>
<!DOCTYPE svg PUBLIC "-//W3C//DTD SVG 20010904//EN"
 "http://www.w3.org/TR/2001/REC-SVG-20010904/DTD/svg10.dtd">
<svg version="1.0" xmlns="http://www.w3.org/2000/svg"
 width="900.000000pt" height="786.000000pt" viewBox="0 0 900.000000 786.000000"
 preserveAspectRatio="xMidYMid meet">
<metadata>
Created by potrace 1.10, written by Peter Selinger 2001-2011
</metadata>
<g transform="translate(0.000000,786.000000) scale(0.100000,-0.100000)"
fill="#000000" stroke="none">
<path d="M1120 7580 c-41 -4 -88 -13 -103 -19 -16 -6 -37 -11 -48 -11 -25 0
-141 -55 -199 -94 -144 -96 -237 -257 -278 -481 -16 -83 -17 -338 -17 -3145 0
-3216 -1 -3109 42 -3255 62 -207 203 -358 393 -420 30 -9 65 -22 78 -26 72
-28 307 -30 3312 -27 l3095 4 74 22 c130 39 236 96 307 168 36 35 69 74 74 87
6 12 19 37 30 56 26 41 54 124 74 218 14 65 16 387 16 3165 0 2972 -1 3097
-18 3179 -24 109 -38 150 -75 224 -36 73 -51 92 -128 171 -69 71 -174 128
-304 166 l-80 23 -3085 1 c-1697 1 -3119 -2 -3160 -6z m4734 -1470 c16 -8 37
-28 47 -45 18 -31 20 -48 40 -247 7 -71 16 -122 24 -128 10 -8 24 -7 52 5 153
65 385 115 535 115 136 0 255 -34 396 -114 44 -25 152 -119 194 -170 128 -151
223 -346 301 -616 41 -140 77 -408 77 -566 0 -192 -44 -446 -106 -606 -8 -21
-21 -57 -30 -80 -33 -86 -91 -209 -131 -275 -85 -144 -128 -205 -212 -303
-226 -261 -514 -459 -853 -586 -116 -43 -124 -46 -283 -87 -116 -30 -311 -64
-428 -73 -67 -6 -79 -10 -96 -33 -10 -14 -53 -72 -94 -128 -78 -104 -224 -259
-311 -328 -48 -38 -65 -50 -164 -118 -69 -47 -255 -135 -355 -168 -222 -72
-405 -93 -797 -93 -350 1 -533 19 -710 71 -109 31 -261 93 -333 135 -26 15
-50 28 -52 28 -7 0 -161 106 -210 144 -91 73 -240 231 -328 349 -48 64 -87
119 -87 122 0 3 -12 24 -27 48 -34 52 -45 72 -93 167 -62 122 -144 314 -156
363 -3 15 -10 30 -15 33 -5 3 -9 14 -9 24 0 11 -6 34 -14 52 -15 37 -35 102
-61 198 -10 36 -23 85 -30 110 -12 41 -21 88 -60 285 -34 181 -60 362 -92 660
-14 132 -17 260 -17 735 0 386 4 610 12 680 6 58 16 165 22 238 12 145 21 171
75 203 29 18 99 19 2190 17 1897 -3 2164 -5 2189 -18z"/>
<path d="M6395 5190 c-133 -35 -251 -81 -358 -139 l-52 -28 -2 -119 c-8 -521
-57 -1043 -128 -1384 -41 -192 -49 -228 -60 -265 -7 -22 -21 -69 -30 -105 -10
-36 -24 -82 -31 -103 -8 -20 -14 -42 -14 -47 0 -37 226 32 426 130 268 132
500 356 619 601 58 118 65 137 105 264 90 292 53 692 -92 995 -48 99 -86 152
-141 191 -35 25 -48 29 -106 28 -36 0 -97 -9 -136 -19z"/>
</g>
</svg>
